<svg width="1024" height="1024" viewBox="0 0 1024 1024" fill="none" xmlns="http://www.w3.org/2000/svg">
<rect width="1024" height="1024" fill="#4CAF50"/>
<path d="M280.002 452.314C280.069 448.785 282.564 443.234 285.531 439.952L290.925 433.996H700.184L705.803 439.615C709.489 443.301 711.422 447.774 711.444 452.539C711.444 456.562 709.938 462.136 708.073 464.901C706.207 467.688 701.398 470.925 697.374 472.116C692.048 473.667 687.44 478.094 680.338 488.411C674.989 496.188 665.032 512.418 660.312 518.83C655.615 525.242 650.535 535.471 649.052 539.961C646.962 546.312 646.962 549.834 649.052 555.682L649.172 556.025C650.869 560.847 657.773 580.476 664.762 596.077C671.932 612.08 679.843 631.731 682.361 639.723C684.9 647.734 688.182 662.573 689.688 672.699C691.845 687.364 691.823 694.91 689.553 709.555C687.98 719.701 684.923 732.348 682.765 737.683C680.608 743.017 676.517 751.746 673.663 757.081C670.808 762.415 663.863 772.793 658.199 780.125C652.536 787.458 639.297 800.552 628.756 809.222C618.215 817.893 603.044 828.271 595.043 832.287C587.042 836.322 572.635 842.199 563.06 845.38C553.485 848.562 536.786 852.48 525.975 854.109C515.164 855.72 500.758 857.019 493.947 857C487.16 857 473.495 855.758 463.605 854.265C453.716 852.752 439.062 849.648 431.016 847.32C422.992 845.012 407.821 839.037 397.302 834.052C382.85 827.185 372.736 820.26 355.722 805.537C342.08 793.743 329.606 780.785 324.009 772.56C318.907 765.131 311.67 751.61 307.917 742.532C304.141 733.473 299.848 718.188 298.365 708.586C296.252 694.91 296.274 687.151 298.432 672.699C299.96 662.573 303.511 646.861 306.343 637.783C309.153 628.724 316.997 609.52 323.762 595.107C330.451 580.875 337.206 561.259 338.856 556.468L338.911 556.311C341.158 549.934 341.203 546.35 339.158 539.961C337.742 535.471 332.415 524.921 327.358 518.101C322.301 511.296 315.918 494.502 311.108 487.377C304.837 478.094 300.32 473.869 295.061 472.341C291.037 471.172 285.98 467.643 283.823 464.474C281.665 461.305 279.934 455.843 280.002 452.314Z" fill="black" fill-opacity="0.68"/>
<path d="M348.049 299.115C349.299 299.115 348.53 302.668 345.624 310.397C343.298 316.597 340.552 327.571 339.52 334.776C338.081 344.848 338.022 350.393 339.272 358.791C340.173 364.802 342.628 373.639 344.75 378.442C346.857 383.245 351.335 390.71 354.678 395.019C358.035 399.341 364.69 405.659 369.486 409.051C370.638 409.869 372.212 410.871 374.076 411.992H305.898C305.72 411.468 305.552 410.957 305.396 410.462C303.376 404.058 301.34 393.578 300.89 387.174C300.308 379.052 300.802 371.79 302.531 363.159C303.898 356.347 307.226 346.201 309.915 340.597C312.618 334.993 318.301 326.174 322.544 321.007C326.774 315.84 333.851 308.794 338.24 305.359C342.628 301.925 347.044 299.116 348.049 299.115Z" fill="black" fill-opacity="0.68"/>
<path d="M483.177 171.504C489.996 171.416 499.832 172.032 505.034 172.883C510.236 173.719 518.934 175.684 524.34 177.268C529.746 178.838 534.511 180.79 534.904 181.597C535.297 182.404 534.816 183.299 533.811 183.592C532.805 183.871 528.055 185.352 523.247 186.863C518.439 188.388 509.624 192.937 503.664 196.986C497.53 201.137 489.734 208.163 485.712 213.136C481.822 217.977 475.76 227.879 472.249 235.14C468.737 242.402 464.803 252.306 463.507 257.147C462.195 261.989 460.769 273.534 460.317 282.819C459.822 293.147 460.141 302.815 461.176 307.758C462.094 312.203 464.527 319.449 466.582 323.893C468.651 328.338 473.708 335.615 477.846 340.075C481.984 344.534 488.802 352.793 493.028 358.411C497.239 364.03 503.62 374.578 507.205 381.84C510.804 389.102 515.087 400.324 516.748 406.779C517.183 408.482 517.568 410.22 517.909 411.992H417.153C409.586 406.279 399.677 397.669 394.879 392.637C389.998 387.503 383.485 379.346 380.41 374.504C377.336 369.664 372.688 361.082 370.094 355.435C367.501 349.787 364.004 340.222 362.314 334.163C360.638 328.12 358.845 317.219 358.35 309.958C357.811 302.065 358.176 291.738 359.254 284.285C360.259 277.435 363.319 265.538 366.058 257.88C368.797 250.223 374.145 239 377.919 232.941C381.693 226.897 389.371 217.068 394.995 211.112C400.62 205.156 409.16 197.484 413.968 194.051C418.776 190.618 425.988 186.173 429.995 184.178C434.002 182.168 441.549 179.146 446.751 177.444C451.952 175.757 459.499 173.748 463.507 173.015C467.513 172.266 476.358 171.593 483.177 171.504Z" fill="black" fill-opacity="0.68"/>
<path d="M572.428 265.275C565.482 271.97 563.273 275.245 561.399 281.649C559.553 287.981 559.378 291.096 560.556 296.568C561.384 300.367 563.461 306.262 565.176 309.668C566.891 313.074 573.999 321.748 580.946 328.953C589.288 337.584 595.217 345.27 598.356 351.515C600.957 356.711 604.329 365.894 605.841 371.89C607.614 378.92 608.588 387.858 608.573 396.998C608.573 401.369 608.237 406.891 607.726 411.992H540.962C540.545 409.114 539.901 406.131 538.973 402.457C537.258 395.645 534.062 387.32 531.882 383.943C529.687 380.566 524.788 373.362 520.995 367.933C517.202 362.504 512.727 354.134 511.041 349.331C509.355 344.527 507.639 335.693 507.218 329.681C506.695 322.142 507.189 315.956 508.831 309.668C510.124 304.661 512.929 297.136 515.051 292.929C517.188 288.723 521.927 282.13 525.589 278.258C529.266 274.386 535.53 269.161 539.526 266.658C543.523 264.14 550.396 260.951 554.785 259.568C559.174 258.185 566.906 257.022 581.104 256.906L572.428 265.275Z" fill="black" fill-opacity="0.68"/>
<path d="M720.143 232.204C727.515 222.944 743.923 204.49 756.621 191.184C769.32 177.901 780.378 167.022 781.165 167C781.974 167 787.435 171.787 804 188.375L793.616 198.489C787.907 204.063 775.006 217.774 764.937 228.967C754.891 240.16 741.608 256.613 735.427 265.514C726.392 278.527 724.751 282.258 727.043 284.506C728.594 286.034 729.92 290.822 729.943 295.137C729.988 299.475 728.707 304.263 727.088 305.769C725.493 307.297 721.335 309.32 717.851 310.264C712.097 311.837 709.647 316.4 691.487 359.195C680.496 385.155 671.461 407.676 671.439 409.205C671.394 411.227 666.247 412.014 653.391 412.014C640.422 412.014 635.455 411.25 635.545 409.205C635.635 407.676 646.109 382.121 658.807 352.452C681.103 300.442 681.8 298.284 678.743 291.766C676.316 286.641 676.136 283.562 677.957 278.842C679.597 274.617 682.834 271.964 688.228 270.413C694.049 268.75 697.488 265.693 701.444 258.613C704.365 253.376 712.794 241.486 720.143 232.204Z" fill="black" fill-opacity="0.68"/>
</svg>
